<svg width="24" height="30" viewBox="0 0 24 30" fill="none" xmlns="http://www.w3.org/2000/svg">
<path d="M5.5 11C5.36739 11 5.24021 11.0527 5.14645 11.1464C5.05268 11.2402 5 11.3674 5 11.5C5 11.6326 5.05268 11.7598 5.14645 11.8536C5.24021 11.9473 5.36739 12 5.5 12H18.5C18.6326 12 18.7598 11.9473 18.8536 11.8536C18.9473 11.7598 19 11.6326 19 11.5C19 11.3674 18.9473 11.2402 18.8536 11.1464C18.7598 11.0527 18.6326 11 18.5 11H5.5ZM5.5 14C5.36739 14 5.24021 14.0527 5.14645 14.1464C5.05268 14.2402 5 14.3674 5 14.5C5 14.6326 5.05268 14.7598 5.14645 14.8536C5.24021 14.9473 5.36739 15 5.5 15H18.5C18.6326 15 18.7598 14.9473 18.8536 14.8536C18.9473 14.7598 19 14.6326 19 14.5C19 14.3674 18.9473 14.2402 18.8536 14.1464C18.7598 14.0527 18.6326 14 18.5 14H5.5ZM5 17.5C5 17.3674 5.05268 17.2402 5.14645 17.1464C5.24021 17.0527 5.36739 17 5.5 17H18.5C18.6326 17 18.7598 17.0527 18.8536 17.1464C18.9473 17.2402 19 17.3674 19 17.5C19 17.6326 18.9473 17.7598 18.8536 17.8536C18.7598 17.9473 18.6326 18 18.5 18H5.5C5.36739 18 5.24021 17.9473 5.14645 17.8536C5.05268 17.7598 5 17.6326 5 17.5ZM5.5 20C5.36739 20 5.24021 20.0527 5.14645 20.1464C5.05268 20.2402 5 20.3674 5 20.5C5 20.6326 5.05268 20.7598 5.14645 20.8536C5.24021 20.9473 5.36739 21 5.5 21H13.5C13.6326 21 13.7598 20.9473 13.8536 20.8536C13.9473 20.7598 14 20.6326 14 20.5C14 20.3674 13.9473 20.2402 13.8536 20.1464C13.7598 20.0527 13.6326 20 13.5 20H5.5Z" fill="white"/>
<path d="M0 3C0 2.20435 0.316071 1.44129 0.87868 0.87868C1.44129 0.31607 2.20435 0 3 0H16.05C16.3152 5.66374e-05 16.5695 0.105451 16.757 0.293L23.707 7.243C23.8946 7.43049 23.9999 7.6848 24 7.95V27C24 27.7956 23.6839 28.5587 23.1213 29.1213C22.5587 29.6839 21.7956 30 21 30H3C2.20435 30 1.44129 29.6839 0.87868 29.1213C0.316071 28.5587 0 27.7956 0 27V3ZM3 2C2.73478 2 2.48043 2.10536 2.29289 2.29289C2.10536 2.48043 2 2.73478 2 3V27C2 27.2652 2.10536 27.5196 2.29289 27.7071C2.48043 27.8946 2.73478 28 3 28H21C21.2652 28 21.5196 27.8946 21.7071 27.7071C21.8946 27.5196 22 27.2652 22 27V8.364L21.636 8H16.993C16.7288 7.99894 16.4757 7.89302 16.2895 7.70551C16.1033 7.518 15.9992 7.26425 16 7V2.364L15.636 2H3Z" fill="white"/>
</svg>
