<svg width="23" height="23" viewBox="0 0 23 23" fill="none" xmlns="http://www.w3.org/2000/svg">
<path d="M19.4477 6.24218L15.0094 2.28261C13.7463 1.15464 13.1153 0.5901 12.3386 0.295605L12.3285 3.3339C12.3285 5.95324 12.3285 7.26347 13.1489 8.07694C13.9693 8.89041 15.2907 8.89041 17.9324 8.89041H21.9448C21.5391 8.10806 20.8105 7.45906 19.4477 6.24218Z" fill="white"/>
<path fill-rule="evenodd" clip-rule="evenodd" d="M8.9662 22.226H13.4493C17.6757 22.226 19.7895 22.226 21.1019 20.9236C22.4144 19.6211 22.4155 17.5263 22.4155 13.3356V12.85C22.4155 11.8798 22.4155 11.1508 22.3673 10.5574H17.8259C16.5964 10.5574 15.5093 10.5574 14.634 10.4407C13.6847 10.314 12.7354 10.0239 11.9609 9.25603C11.1853 8.48701 10.8928 7.54574 10.765 6.60447C10.6474 5.73654 10.6474 4.65969 10.6474 3.43948L10.6586 0.29005C10.6586 0.198182 10.666 0.107796 10.681 0.0188921C10.2226 -4.55391e-08 9.67901 0 8.99982 0C4.75097 0 2.62598 -1.32478e-07 1.31355 1.30245C-1.33607e-07 2.60378 0 4.6997 0 8.89042V13.3356C0 17.5263 -1.33607e-07 19.6223 1.31355 20.9236C2.6271 22.2249 4.73976 22.226 8.9662 22.226ZM6.71008 18.9444C6.86588 19.0892 7.07146 19.1698 7.28504 19.1698C7.49862 19.1698 7.70419 19.0892 7.85999 18.9444L10.1015 16.8607C10.2604 16.7086 10.3524 16.5006 10.3579 16.2818C10.3633 16.0629 10.2817 15.8507 10.1307 15.691C9.97965 15.5313 9.77131 15.437 9.55069 15.4284C9.33007 15.4197 9.11489 15.4975 8.95163 15.6449L8.12562 16.4117V12.78C8.12562 12.5589 8.03706 12.3469 7.87942 12.1906C7.72178 12.0343 7.50797 11.9465 7.28504 11.9465C7.0621 11.9465 6.8483 12.0343 6.69066 12.1906C6.53302 12.3469 6.44446 12.5589 6.44446 12.78V16.4128L5.61844 15.6449C5.45519 15.4975 5.24 15.4197 5.01938 15.4284C4.79876 15.437 4.59042 15.5313 4.43939 15.691C4.28835 15.8507 4.20674 16.0629 4.21219 16.2818C4.21765 16.5006 4.30972 16.7086 4.46853 16.8607L6.71008 18.9444Z" fill="white"/>
</svg>
