<svg width="12" height="10" viewBox="0 0 12 10" fill="none" xmlns="http://www.w3.org/2000/svg">
<path d="M0.183105 3.57812V8.34909C0.183105 8.66542 0.30204 8.9688 0.513744 9.19248C0.725449 9.41617 1.01258 9.54183 1.31198 9.54183H10.3429C10.6423 9.54183 10.9295 9.41617 11.1412 9.19248C11.3529 8.9688 11.4718 8.66542 11.4718 8.34909V3.57812L5.82746 5.96361L0.183105 3.57812Z" fill="#7D8594"/>
<path d="M1.31198 0C1.01258 0 0.725449 0.125663 0.513744 0.349346C0.30204 0.573028 0.183105 0.876406 0.183105 1.19274L0.183105 2.38548L5.82746 4.77096L11.4718 2.38548V1.19274C11.4718 0.876406 11.3529 0.573028 11.1412 0.349346C10.9295 0.125663 10.6423 0 10.3429 0H1.31198Z" fill="#7D8594"/>
</svg>
