<svg width="17" height="17" viewBox="0 0 17 17" fill="none" xmlns="http://www.w3.org/2000/svg">
<path d="M12.0771 14.365C11.3829 15.0379 10.625 14.9317 9.89539 14.6129C9.12331 14.2871 8.41497 14.2729 7.60039 14.6129C6.58039 15.0521 6.04206 14.9246 5.43289 14.365C1.97622 10.8021 2.48622 5.37625 6.41039 5.17792C7.36664 5.2275 8.03247 5.70208 8.59206 5.74458C9.42789 5.57458 10.2283 5.08583 11.1208 5.14958C12.1904 5.23458 12.9979 5.65958 13.5291 6.42458C11.3191 7.74917 11.8433 10.6604 13.8691 11.475C13.4654 12.5375 12.9412 13.5929 12.07 14.3721L12.0771 14.365ZM8.52122 5.13542C8.41497 3.55583 9.69706 2.2525 11.1704 2.125C11.3758 3.9525 9.51289 5.3125 8.52122 5.13542Z" fill="black"/>
</svg>
