<svg width="10" height="13" viewBox="0 0 10 13" fill="none" xmlns="http://www.w3.org/2000/svg">
<path d="M8.62684 5.41818L7.85538 5.40279L7.90229 3.15328C7.93669 1.50364 6.57621 0.126223 4.879 0.0923583C3.18179 0.0584936 1.76502 1.38049 1.73061 3.03013L1.6837 5.27965L0.91224 5.26425C0.52651 5.25656 0.132961 5.62378 0.125142 5.9987L0.0156779 11.2476C0.00785898 11.6225 0.38577 12.0051 0.7715 12.0128L8.4861 12.1667C8.87183 12.1744 9.26538 11.8072 9.27319 11.4323L9.38266 6.18341C9.39048 5.80849 9.01257 5.42588 8.62684 5.41818ZM5.43153 10.6055L3.88861 10.5747L4.2316 8.9312C3.849 8.77354 3.5498 8.31748 3.55762 7.94256C3.57013 7.34269 4.1211 6.82858 4.73826 6.84089C5.35543 6.85321 5.88451 7.38887 5.872 7.98874C5.86261 8.43864 5.62336 8.80894 5.15735 8.94967L5.43153 10.6055ZM6.31246 5.372L3.22662 5.31043L3.27353 3.06092C3.29073 2.2361 3.99912 1.5751 4.84773 1.59203C5.69633 1.60896 6.37657 2.29767 6.35937 3.12249L6.31246 5.372Z" fill="#737B8B"/>
</svg>
