<svg width="13" height="13" viewBox="0 0 13 13" fill="none" xmlns="http://www.w3.org/2000/svg">
<g clip-path="url(#clip0_77_203)">
<path d="M13 6.5C13 2.91017 10.0898 0 6.5 0C2.91017 0 0 2.91017 0 6.5C0 9.74431 2.37697 12.4334 5.48438 12.921V8.37891H3.83398V6.5H5.48438V5.06797C5.48438 3.43891 6.4548 2.53906 7.93955 2.53906C8.65069 2.53906 9.39453 2.66602 9.39453 2.66602V4.26563H8.57492C7.76745 4.26563 7.51562 4.76668 7.51562 5.28074V6.5H9.31836L9.03018 8.37891H7.51562V12.921C10.623 12.4334 13 9.74436 13 6.5Z" fill="#1877F2"/>
<path d="M9.03018 8.37891L9.31836 6.5H7.51562V5.28074C7.51562 4.76663 7.76745 4.26562 8.57492 4.26562H9.39453V2.66602C9.39453 2.66602 8.65069 2.53906 7.9395 2.53906C6.4548 2.53906 5.48438 3.43891 5.48438 5.06797V6.5H3.83398V8.37891H5.48438V12.921C5.82035 12.9737 6.15992 13.0001 6.5 13C6.84008 13.0001 7.17965 12.9737 7.51562 12.921V8.37891H9.03018Z" fill="#2B2C33"/>
</g>
<defs>
<clipPath id="clip0_77_203">
<rect width="13" height="13" fill="white"/>
</clipPath>
</defs>
</svg>
