<svg width="13" height="15" viewBox="0 0 13 15" fill="none" xmlns="http://www.w3.org/2000/svg">
<path d="M6.50002 7.5C5.90419 7.5 5.39412 7.25521 4.96981 6.76562C4.54551 6.27604 4.33335 5.6875 4.33335 5C4.33335 4.3125 4.54551 3.72396 4.96981 3.23438C5.39412 2.74479 5.90419 2.5 6.50002 2.5C7.09585 2.5 7.60592 2.74479 8.03023 3.23438C8.45453 3.72396 8.66669 4.3125 8.66669 5C8.66669 5.6875 8.45453 6.27604 8.03023 6.76562C7.60592 7.25521 7.09585 7.5 6.50002 7.5ZM2.16669 12.5V10.75C2.16669 10.3958 2.24577 10.0704 2.40394 9.77375C2.5621 9.47708 2.77191 9.25042 3.03335 9.09375C3.59308 8.77083 4.16183 8.52875 4.7396 8.3675C5.31738 8.20625 5.90419 8.12542 6.50002 8.125C7.09585 8.12458 7.68266 8.20542 8.26044 8.3675C8.83821 8.52958 9.40696 8.77167 9.96669 9.09375C10.2285 9.25 10.4385 9.47667 10.5966 9.77375C10.7548 10.0708 10.8337 10.3963 10.8334 10.75V12.5H2.16669Z" fill="#7D8594"/>
</svg>
