<svg width="22" height="25" viewBox="0 0 22 25" fill="none" xmlns="http://www.w3.org/2000/svg">
<path d="M20.7994 17.2829C19.8938 16.3098 18.1993 14.8459 18.1993 10.0506C18.1993 6.40841 15.6455 3.49279 12.2021 2.77747V1.8006C12.2021 0.972317 11.5309 0.300598 10.7031 0.300598C9.87525 0.300598 9.20401 0.972317 9.20401 1.8006V2.77747C5.76058 3.49279 3.20684 6.40841 3.20684 10.0506C3.20684 14.8459 1.51231 16.3098 0.606689 17.2829C0.32544 17.5853 0.200753 17.9467 0.203096 18.3006C0.208253 19.0693 0.811532 19.8006 1.70778 19.8006H19.6983C20.5946 19.8006 21.1983 19.0693 21.203 18.3006C21.2054 17.9467 21.0807 17.5848 20.7994 17.2829ZM3.36856 17.5506C4.36324 16.2395 5.45074 14.0664 5.45589 10.0778C5.45589 10.0684 5.45308 10.06 5.45308 10.0506C5.45308 7.15091 7.80339 4.8006 10.7031 4.8006C13.6027 4.8006 15.953 7.15091 15.953 10.0506C15.953 10.06 15.9502 10.0684 15.9502 10.0778C15.9554 14.0668 17.0429 16.24 18.0376 17.5506H3.36856ZM10.7031 24.3006C12.3587 24.3006 13.7016 22.9576 13.7016 21.3006H7.70448C7.70448 22.9576 9.04744 24.3006 10.7031 24.3006Z" fill="white"/>
</svg>
