<svg width="20" height="21" viewBox="0 0 20 21" fill="none" xmlns="http://www.w3.org/2000/svg">
<path d="M15.5 2.06V0.75C15.5 0.551088 15.421 0.360322 15.2803 0.21967C15.1397 0.0790175 14.9489 0 14.75 0C14.5511 0 14.3603 0.0790175 14.2197 0.21967C14.079 0.360322 14 0.551088 14 0.75V2H5.5V0.75C5.5 0.551088 5.42098 0.360322 5.28033 0.21967C5.13968 0.0790175 4.94891 0 4.75 0C4.55109 0 4.36032 0.0790175 4.21967 0.21967C4.07902 0.360322 4 0.551088 4 0.75V2.06C2.88533 2.24028 1.87104 2.81095 1.13831 3.67008C0.405578 4.52921 0.00212012 5.62084 0 6.75V15.5C0 16.1238 0.122862 16.7415 0.361572 17.3177C0.600282 17.894 0.950164 18.4177 1.39124 18.8588C2.28204 19.7496 3.49022 20.25 4.75 20.25H14.75C15.3738 20.25 15.9915 20.1271 16.5677 19.8884C17.144 19.6497 17.6677 19.2998 18.1088 18.8588C18.5498 18.4177 18.8997 17.894 19.1384 17.3177C19.3771 16.7415 19.5 16.1238 19.5 15.5V6.75C19.4979 5.62084 19.0944 4.52921 18.3617 3.67008C17.629 2.81095 16.6147 2.24028 15.5 2.06ZM7.5 7.14C7.5 6.54326 7.73705 5.97097 8.15901 5.54901C8.58097 5.12705 9.15326 4.89 9.75 4.89C10.3467 4.89 10.919 5.12705 11.341 5.54901C11.7629 5.97097 12 6.54326 12 7.14C12 7.69474 11.7932 8.22955 11.42 8.64C11.793 9.05 12 9.585 12 10.14C12 10.7367 11.7629 11.309 11.341 11.731C10.919 12.1529 10.3467 12.39 9.75 12.39C9.15326 12.39 8.58097 12.1529 8.15901 11.731C7.73705 11.309 7.5 10.7367 7.5 10.14C7.5 9.585 7.707 9.05 8.08 8.64C7.70683 8.22955 7.50003 7.69474 7.5 7.14ZM18 15.5C18 16.362 17.6576 17.1886 17.0481 17.7981C16.4386 18.4076 15.612 18.75 14.75 18.75H4.75C3.88805 18.75 3.0614 18.4076 2.4519 17.7981C1.84241 17.1886 1.5 16.362 1.5 15.5V15.24H18V15.5Z" fill="white"/>
</svg>
