<svg xmlns="http://www.w3.org/2000/svg" viewBox="0 0 100 100" preserveAspectRatio="xMidYMid" width="210" height="210" style="shape-rendering: auto; display: block; background: transparent;" xmlns:xlink="http://www.w3.org/1999/xlink"><g><g transform="rotate(0 50 50)">
  <rect fill="#d6d6d6" height="16" width="5" ry="2.56" rx="2.5" y="22" x="47.5">
    <animate repeatCount="indefinite" begin="-1.3145539906103285s" dur="1.408450704225352s" keyTimes="0;1" values="1;0" attributeName="opacity"></animate>
  </rect>
</g><g transform="rotate(24 50 50)">
  <rect fill="#d6d6d6" height="16" width="5" ry="2.56" rx="2.5" y="22" x="47.5">
    <animate repeatCount="indefinite" begin="-1.220657276995305s" dur="1.408450704225352s" keyTimes="0;1" values="1;0" attributeName="opacity"></animate>
  </rect>
</g><g transform="rotate(48 50 50)">
  <rect fill="#d6d6d6" height="16" width="5" ry="2.56" rx="2.5" y="22" x="47.5">
    <animate repeatCount="indefinite" begin="-1.1267605633802817s" dur="1.408450704225352s" keyTimes="0;1" values="1;0" attributeName="opacity"></animate>
  </rect>
</g><g transform="rotate(72 50 50)">
  <rect fill="#d6d6d6" height="16" width="5" ry="2.56" rx="2.5" y="22" x="47.5">
    <animate repeatCount="indefinite" begin="-1.0328638497652582s" dur="1.408450704225352s" keyTimes="0;1" values="1;0" attributeName="opacity"></animate>
  </rect>
</g><g transform="rotate(96 50 50)">
  <rect fill="#d6d6d6" height="16" width="5" ry="2.56" rx="2.5" y="22" x="47.5">
    <animate repeatCount="indefinite" begin="-0.9389671361502347s" dur="1.408450704225352s" keyTimes="0;1" values="1;0" attributeName="opacity"></animate>
  </rect>
</g><g transform="rotate(120 50 50)">
  <rect fill="#d6d6d6" height="16" width="5" ry="2.56" rx="2.5" y="22" x="47.5">
    <animate repeatCount="indefinite" begin="-0.8450704225352113s" dur="1.408450704225352s" keyTimes="0;1" values="1;0" attributeName="opacity"></animate>
  </rect>
</g><g transform="rotate(144 50 50)">
  <rect fill="#d6d6d6" height="16" width="5" ry="2.56" rx="2.5" y="22" x="47.5">
    <animate repeatCount="indefinite" begin="-0.7511737089201878s" dur="1.408450704225352s" keyTimes="0;1" values="1;0" attributeName="opacity"></animate>
  </rect>
</g><g transform="rotate(168 50 50)">
  <rect fill="#d6d6d6" height="16" width="5" ry="2.56" rx="2.5" y="22" x="47.5">
    <animate repeatCount="indefinite" begin="-0.6572769953051643s" dur="1.408450704225352s" keyTimes="0;1" values="1;0" attributeName="opacity"></animate>
  </rect>
</g><g transform="rotate(192 50 50)">
  <rect fill="#d6d6d6" height="16" width="5" ry="2.56" rx="2.5" y="22" x="47.5">
    <animate repeatCount="indefinite" begin="-0.5633802816901409s" dur="1.408450704225352s" keyTimes="0;1" values="1;0" attributeName="opacity"></animate>
  </rect>
</g><g transform="rotate(216 50 50)">
  <rect fill="#d6d6d6" height="16" width="5" ry="2.56" rx="2.5" y="22" x="47.5">
    <animate repeatCount="indefinite" begin="-0.4694835680751174s" dur="1.408450704225352s" keyTimes="0;1" values="1;0" attributeName="opacity"></animate>
  </rect>
</g><g transform="rotate(240 50 50)">
  <rect fill="#d6d6d6" height="16" width="5" ry="2.56" rx="2.5" y="22" x="47.5">
    <animate repeatCount="indefinite" begin="-0.3755868544600939s" dur="1.408450704225352s" keyTimes="0;1" values="1;0" attributeName="opacity"></animate>
  </rect>
</g><g transform="rotate(264 50 50)">
  <rect fill="#d6d6d6" height="16" width="5" ry="2.56" rx="2.5" y="22" x="47.5">
    <animate repeatCount="indefinite" begin="-0.28169014084507044s" dur="1.408450704225352s" keyTimes="0;1" values="1;0" attributeName="opacity"></animate>
  </rect>
</g><g transform="rotate(288 50 50)">
  <rect fill="#d6d6d6" height="16" width="5" ry="2.56" rx="2.5" y="22" x="47.5">
    <animate repeatCount="indefinite" begin="-0.18779342723004694s" dur="1.408450704225352s" keyTimes="0;1" values="1;0" attributeName="opacity"></animate>
  </rect>
</g><g transform="rotate(312 50 50)">
  <rect fill="#d6d6d6" height="16" width="5" ry="2.56" rx="2.5" y="22" x="47.5">
    <animate repeatCount="indefinite" begin="-0.09389671361502347s" dur="1.408450704225352s" keyTimes="0;1" values="1;0" attributeName="opacity"></animate>
  </rect>
</g><g transform="rotate(336 50 50)">
  <rect fill="#d6d6d6" height="16" width="5" ry="2.56" rx="2.5" y="22" x="47.5">
    <animate repeatCount="indefinite" begin="0s" dur="1.408450704225352s" keyTimes="0;1" values="1;0" attributeName="opacity"></animate>
  </rect>
</g><g></g></g><!-- [ldio] generated by https://loading.io --></svg>